<svg xmlns="http://www.w3.org/2000/svg" viewBox="0 0 1845 855">
  <rect width="1845" height="855" fill="#070807"/>
  <g stroke="#1f2421" stroke-width="1">
    <path d="M0 52H1845M0 852H1845"/>
    <path d="M115 52V852M250 52V852M385 52V852M520 52V852M655 52V852M790 52V852M925 52V852M1060 52V852M1195 52V852M1330 52V852M1465 52V852M1600 52V852M1735 52V852"/>
  </g>
  <text x="16" y="26" font-family="Arial, sans-serif" font-size="17" font-weight="800" fill="#fff">DentalGrowth</text>
  <text x="135" y="26" font-family="Arial, sans-serif" font-size="17" font-weight="800" fill="#22c55e">Co.</text>
  <g font-family="Arial, sans-serif" font-size="12" font-weight="700" fill="#8b8b8b">
    <text x="733" y="27">Services</text><text x="812" y="27">Process</text><text x="886" y="27">Results</text><text x="958" y="27">Testimonials</text><text x="1058" y="27">Contact</text>
  </g>
  <rect x="1673" y="1" width="158" height="43" rx="4" fill="#22c55e"/>
  <text x="1752" y="27" text-anchor="middle" font-family="Arial, sans-serif" font-size="12" font-weight="900" fill="#000">BOOK A CALL →</text>
  <rect x="436" y="126" width="194" height="30" rx="15" fill="#082414" stroke="#14532d"/>
  <text x="533" y="146" text-anchor="middle" font-family="Arial, sans-serif" font-size="12" font-weight="800" fill="#22c55e">• #1 Dental Marketing Agency</text>
  <text x="436" y="235" font-family="Arial Black, Arial, sans-serif" font-size="58" font-weight="900" fill="#fff">We Fill Your</text>
  <text x="436" y="298" font-family="Arial Black, Arial, sans-serif" font-size="58" font-weight="900" fill="#22c55e">Chair,</text>
  <text x="620" y="298" font-family="Arial Black, Arial, sans-serif" font-size="58" font-weight="900" fill="#fff">Every</text>
  <text x="436" y="361" font-family="Arial Black, Arial, sans-serif" font-size="58" font-weight="900" fill="#fff">Single Day.</text>
  <text x="436" y="412" font-family="Arial, sans-serif" font-size="18" fill="#8b8b8b">Precision SEO, paid ads, and social media — built</text>
  <text x="436" y="439" font-family="Arial, sans-serif" font-size="18" fill="#8b8b8b">exclusively for dental practices that want to dominate their</text>
  <text x="436" y="466" font-family="Arial, sans-serif" font-size="18" fill="#8b8b8b">local market.</text>
  <rect x="436" y="507" width="265" height="43" rx="5" fill="#22c55e"/>
  <text x="568" y="533" text-anchor="middle" font-family="Arial, sans-serif" font-size="12" font-weight="900" fill="#000">BOOK A FREE STRATEGY CALL →</text>
  <rect x="714" y="507" width="151" height="43" rx="5" fill="#090909" stroke="#2a2a2a"/>
  <text x="790" y="533" text-anchor="middle" font-family="Arial, sans-serif" font-size="12" font-weight="900" fill="#fff">VIEW RESULTS</text>
  <rect x="936" y="151" width="459" height="400" rx="11" fill="#d8f3ff"/>
  <rect x="970" y="187" width="390" height="290" rx="8" fill="#ffffff"/>
  <rect x="996" y="219" width="92" height="210" fill="#e5f7ff"/>
  <rect x="1112" y="219" width="92" height="210" fill="#f7fafc"/>
  <rect x="1228" y="219" width="92" height="210" fill="#e5f7ff"/>
  <rect x="958" y="483" width="188" height="48" rx="7" fill="#1c1c1c"/>
  <text x="1017" y="493" font-family="Arial, sans-serif" font-size="9" fill="#999">Avg. New Patients / Month</text>
  <text x="1017" y="514" font-family="Arial, sans-serif" font-size="17" font-weight="900" fill="#22c55e">+47 Patients</text>
  <line x1="436" y1="649" x2="1396" y2="649" stroke="#242424"/>
  <g font-family="Arial Black, Arial, sans-serif" font-size="40" font-weight="900" fill="#fff">
    <text x="498" y="713">350</text><text x="575" y="713" fill="#22c55e">+</text>
    <text x="726" y="713" fill="#22c55e">$</text><text x="750" y="713">80M</text><text x="852" y="713" fill="#22c55e">+</text>
    <text x="1005" y="713">12</text><text x="1056" y="713" fill="#22c55e">x</text>
    <text x="1245" y="713">98</text><text x="1300" y="713" fill="#22c55e">%</text>
  </g>
</svg>
